<svg width="15" height="17" viewBox="0 0 15 17" xmlns="http://www.w3.org/2000/svg"><g fill="#FFF" stroke="#7A27C5" fill-rule="evenodd"><path d="M6.5 9.5a.997.997 0 011 1h0v5a.997.997 0 01-1 1 .997.997 0 01-1-1h0v-5a.997.997 0 011-1z"/><path d="M8.5 9.5a.997.997 0 011 1h0v5a.997.997 0 01-1 1 .997.997 0 01-1-1h0v-5a.997.997 0 011-1zM14.5 5.5a.997.997 0 01-1 1h0-12a.997.997 0 01-1-1 .997.997 0 011-1h12a.997.997 0 011 1z"/><path d="M7.5 4.5c.552 0 1.052.224 1.414.586.362.362.586.862.586 1.414h0v3c0 .552-.224 1.052-.586 1.414A1.994 1.994 0 017.5 11.5a1.994 1.994 0 01-1.414-.586A1.994 1.994 0 015.5 9.5h0v-3c0-.552.224-1.052.586-1.414A1.994 1.994 0 017.5 4.5z"/><path d="M7.5.5c.552 0 1.052.224 1.414.586.362.362.586.862.586 1.414 0 .552-.224 1.052-.586 1.414A1.994 1.994 0 017.5 4.5a1.994 1.994 0 01-1.414-.586A1.994 1.994 0 015.5 2.5c0-.552.224-1.052.586-1.414A1.994 1.994 0 017.5.5z"/></g></svg>
