<svg width="86" height="63" xmlns="http://www.w3.org/2000/svg"><g fill="none" fill-rule="evenodd"><rect fill="#F064D2" x="8" width="78" height="55" rx="6"/><path fill="#F064D2" style="mix-blend-mode:multiply" d="M8 13h78v12H8z"/><rect width="78" height="55" rx="6" transform="translate(0 8)" fill="#5DE6F1"/><rect fill="#825FF4" x="8" y="53" width="12" height="3" rx="1.5"/><rect fill="#825FF4" x="55" y="53" width="7" height="3" rx="1.5"/><rect fill="#825FF4" x="64" y="53" width="7" height="3" rx="1.5"/><rect fill="#825FF4" x="24" y="53" width="19" height="3" rx="1.5"/><g transform="translate(8 17)"><path d="M12 1.56A7.532 7.532 0 0116.615 0C20.694 0 24 3.184 24 7.111c0 3.927-3.306 7.111-7.385 7.111A7.532 7.532 0 0112 12.662a7.532 7.532 0 01-4.615 1.56C3.306 14.222 0 11.038 0 7.112 0 3.183 3.306 0 7.385 0 9.13 0 10.735.584 12 1.56z" fill="#FFF"/><ellipse fill="#825FF4" style="mix-blend-mode:multiply" cx="7.385" cy="7.111" rx="7.385" ry="7.111"/><ellipse fill="#F064D2" style="mix-blend-mode:multiply" cx="16.615" cy="7.111" rx="7.385" ry="7.111"/></g></g></svg>